<?xml version="1.0" standalone="no"?>
<!DOCTYPE svg PUBLIC "-//W3C//DTD SVG 20010904//EN"
 "http://www.w3.org/TR/2001/REC-SVG-20010904/DTD/svg10.dtd">
<svg version="1.0" xmlns="http://www.w3.org/2000/svg"
 width="1280.000000pt" height="702.000000pt" viewBox="0 0 1280.000000 702.000000"
 preserveAspectRatio="xMidYMid meet">
<g transform="translate(0.000000,702.000000) scale(0.100000,-0.100000)"
fill="#607d8b" stroke="none">
<path d="M5925 5310 c-145 -16 -274 -48 -453 -114 -121 -45 -293 -154 -422
-268 l-86 -75 -79 -7 c-163 -15 -314 -58 -457 -129 l-85 -43 -74 38 c-189 96
-337 130 -565 129 -236 0 -392 -34 -575 -125 -122 -61 -209 -125 -325 -241
-184 -185 -293 -387 -340 -632 -21 -108 -24 -356 -5 -463 49 -277 191 -525
413 -718 242 -211 493 -302 827 -302 221 1 398 40 559 126 l83 44 112 -55 c62
-30 154 -66 206 -79 132 -36 313 -50 446 -37 l105 11 53 -34 c192 -123 436
-201 702 -227 336 -31 741 61 977 223 17 11 44 18 76 18 117 0 379 62 478 113
26 13 32 13 58 0 16 -8 61 -26 100 -39 354 -121 767 -81 1069 105 l68 42 67
-45 c205 -135 420 -197 682 -197 324 0 580 96 826 309 218 191 359 442 406
726 15 91 15 321 0 412 -52 314 -216 584 -476 785 -155 121 -325 199 -513 235
-127 25 -376 23 -503 -4 -120 -25 -284 -88 -377 -146 l-71 -44 -49 35 c-117
84 -315 166 -453 188 -276 43 -525 20 -730 -68 l-76 -33 -49 23 c-28 13 -81
33 -120 44 -58 18 -80 31 -130 79 -308 292 -644 433 -1067 445 -84 2 -189 0
-233 -5z"/>
</g>
</svg>
